HIERARCHY
ROOT Hips
{
	OFFSET 0.000000 0.000000 0.000000
	CHANNELS 6 Xposition Yposition Zposition Xrotation Yrotation Zrotation
	JOINT LeftUpLeg_virtual
	{
		OFFSET 0.000000 0.000000 0.000000
		CHANNELS 3 Xrotation Yrotation Zrotation
		JOINT LeftUpLeg
		{
			OFFSET 15.427100 -6.655098 0.678600
			CHANNELS 3 Xrotation Yrotation Zrotation
			JOINT LeftLeg
			{
				OFFSET 4.081073 -39.591068 13.024000
				CHANNELS 3 Xrotation Yrotation Zrotation
				JOINT LeftFoot
				{
					OFFSET -4.081074 -37.707932 -15.979700
					CHANNELS 3 Xrotation Yrotation Zrotation
					JOINT LeftToeBase
					{
						OFFSET 5.346399 -15.068900 20.645000
						CHANNELS 3 Xrotation Yrotation Zrotation
						JOINT LeftToe_End
						{
							OFFSET 2.754700 0.931300 11.300900
							CHANNELS 3 Xrotation Yrotation Zrotation
							End Site
							{
								OFFSET 0 0 0
							}
						}
					}
				}
			}
		}
	}
	JOINT RightUpLeg_virtual
	{
		OFFSET 0.000000 0.000000 0.000000
		CHANNELS 3 Xrotation Yrotation Zrotation
		JOINT RightUpLeg
		{
			OFFSET -15.569500 -6.655098 0.678600
			CHANNELS 3 Xrotation Yrotation Zrotation
			JOINT RightLeg
			{
				OFFSET -4.081825 -39.591045 13.023800
				CHANNELS 3 Xrotation Yrotation Zrotation
				JOINT RightFoot
				{
					OFFSET 4.081824 -37.707954 -15.979600
					CHANNELS 3 Xrotation Yrotation Zrotation
					JOINT RightToeBase
					{
						OFFSET -5.346400 -15.068900 20.645000
						CHANNELS 3 Xrotation Yrotation Zrotation
						JOINT RightToe_End
						{
							OFFSET -2.754700 0.931300 11.300900
							CHANNELS 3 Xrotation Yrotation Zrotation
							End Site
							{
								OFFSET 0 0 0
							}
						}
					}
				}
			}
		}
	}
	JOINT Spine_virtual
	{
		OFFSET 0.000000 0.000000 0.000000
		CHANNELS 3 Xrotation Yrotation Zrotation
		JOINT Spine
		{
			OFFSET -0.279200 12.230698 -2.892100
			CHANNELS 3 Xrotation Yrotation Zrotation
			JOINT Spine1
			{
				OFFSET -0.232667 10.192268 -1.242267
				CHANNELS 3 Xrotation Yrotation Zrotation
				JOINT Spine1_split
				{
					OFFSET -0.232667 10.192268 -1.242267
					CHANNELS 3 Xrotation Yrotation Zrotation
					JOINT Spine2
					{
						OFFSET -0.232667 10.192268 -1.242267
						CHANNELS 3 Xrotation Yrotation Zrotation
						JOINT Neck_virtual
						{
							OFFSET 0.000000 0.000000 0.000000
							CHANNELS 3 Xrotation Yrotation Zrotation
							JOINT Neck
							{
								OFFSET -0.418800 17.814194 8.416900
								CHANNELS 3 Xrotation Yrotation Zrotation
								JOINT Head
								{
									OFFSET 0.000000 7.031097 3.806800
									CHANNELS 3 Xrotation Yrotation Zrotation
									JOINT HeadTop_End
									{
										OFFSET 0.000000 24.646606 12.978600
										CHANNELS 3 Xrotation Yrotation Zrotation
										End Site
										{
											OFFSET 0 0 0
										}
									}
								}
							}
						}
						JOINT LeftShoulder_virtual
						{
							OFFSET 0.000000 0.000000 0.000000
							CHANNELS 3 Xrotation Yrotation Zrotation
							JOINT LeftShoulder
							{
								OFFSET 8.476499 7.247704 -3.868750
								CHANNELS 3 Xrotation Yrotation Zrotation
								JOINT LeftShoulder_split
								{
									OFFSET 8.476499 7.247704 -3.868750
									CHANNELS 3 Xrotation Yrotation Zrotation
									JOINT LeftArm
									{
										OFFSET 9.308998 -2.777710 0.208600
										CHANNELS 3 Xrotation Yrotation Zrotation
										JOINT LeftForeArm
										{
											OFFSET 29.972298 0.000000 0.000000
											CHANNELS 3 Xrotation Yrotation Zrotation
											JOINT LeftHand
											{
												OFFSET 26.026505 0.000000 0.000000
												CHANNELS 3 Xrotation Yrotation Zrotation
												End Site
												{
													OFFSET 0 0 0
												}
											}
										}
									}
								}
							}
						}
						JOINT RightShoulder_virtual
						{
							OFFSET 0.000000 0.000000 0.000000
							CHANNELS 3 Xrotation Yrotation Zrotation
							JOINT RightShoulder
							{
								OFFSET -7.570500 7.247704 -3.868750
								CHANNELS 3 Xrotation Yrotation Zrotation
								JOINT RightShoulder_split
								{
									OFFSET -7.570500 7.247704 -3.868750
									CHANNELS 3 Xrotation Yrotation Zrotation
									JOINT RightArm
									{
										OFFSET -9.308998 -2.777710 0.208500
										CHANNELS 3 Xrotation Yrotation Zrotation
										JOINT RightForeArm
										{
											OFFSET -29.972300 0.000000 0.000000
											CHANNELS 3 Xrotation Yrotation Zrotation
											JOINT RightHand
											{
												OFFSET -26.026505 0.000000 0.000000
												CHANNELS 3 Xrotation Yrotation Zrotation
												End Site
												{
													OFFSET 0 0 0
												}
											}
										}
									}
								}
							}
						}
					}
				}
			}
		}
	}
}
MOTION
Frames: 7
Frame Time: 0.03333333
11.582614 71.182190 -4.674385 0.000000 0.000000 0.000000 31.778848 -84.249359 33.505773 -33.252404 -7.830002 27.265273 46.448753 -10.015603 10.991562 -16.241457 -2.759848 -25.460230 -1.544502 0.732584 -2.779705 0.000000 0.000000 0.000000 19.340775 -82.673061 22.089520 -13.594984 6.635323 -30.632876 41.767375 11.502700 -10.591416 -21.321141 -1.896877 27.553224 -16.724741 1.665111 0.215407 0.000000 0.000000 0.000000 27.479180 -79.344880 28.505759 2.067369 5.037311 2.704049 0.295097 3.445788 1.156813 1.569307 -0.965354 0.719160 0.000000 0.000000 0.000000 0.864244 2.963954 0.949711 -3.468967 7.667791 -1.351302 2.844414 40.821722 -4.980611 0.000000 0.000000 0.000000 0.997784 3.400093 1.108189 1.513665 11.346258 -10.382690 -3.362543 -2.139354 -2.248973 -10.306251 10.431349 -65.207379 -179.045841 -63.195533 -176.968863 0.000000 0.000000 0.000000 1.880289 3.569921 0.643264 1.245122 9.260694 10.087249 0.709100 3.716489 2.575949 -13.286577 34.469506 48.214695 -179.540142 71.126954 179.166968 0.000000 0.000000 0.000000 
11.648144 70.867386 -4.851891 0.000000 0.000000 0.000000 23.379160 -84.203194 25.295804 -33.526745 -7.485076 26.299147 45.939784 -11.145689 11.953702 -16.627518 -4.200669 -25.321902 -2.881285 0.962674 -2.747328 0.000000 0.000000 0.000000 13.357395 -81.258364 16.104039 -12.360678 5.000577 -29.918469 42.185892 9.858511 -10.685082 -20.707699 -3.417730 26.398128 -16.875089 1.261140 1.508423 0.000000 0.000000 0.000000 24.385840 -78.769348 25.226390 1.856695 5.303816 2.599399 0.251014 3.591152 1.131167 1.577174 -1.818190 0.811628 0.000000 0.000000 0.000000 0.776757 3.128937 0.905546 -2.684695 7.179182 -1.406090 3.058364 39.551450 -4.691054 0.000000 0.000000 0.000000 1.014548 3.457962 1.096556 1.381871 11.031852 -9.354217 -2.627402 -1.704157 -3.178378 -8.374843 8.027119 -65.501207 -179.523053 -62.674813 -177.341873 0.000000 0.000000 0.000000 1.615499 3.691873 0.652754 1.304155 8.727911 9.249606 0.445836 4.461547 2.558793 -12.166439 33.159155 48.069475 -178.635606 69.730590 178.155840 0.000000 0.000000 0.000000 
11.576643 74.008667 -5.235550 0.000000 0.000000 0.000000 13.388909 -81.312282 15.407937 -33.394837 -6.763536 24.046273 40.762070 -13.081387 11.948632 -12.358783 -7.529862 -26.575636 -3.126897 1.034226 -2.201969 0.000000 0.000000 0.000000 10.159172 -77.966951 13.040811 -11.271053 2.814946 -28.582091 39.995935 8.681540 -10.713735 -14.852964 -3.500121 26.250843 -20.695337 0.410988 3.406750 0.000000 0.000000 0.000000 18.880434 -76.807267 19.700911 1.442076 5.326076 2.305267 0.061713 3.642128 1.021990 1.272822 -2.581530 0.806515 0.000000 0.000000 0.000000 0.678225 3.183980 0.780548 -1.839748 6.707372 -1.462429 3.158261 37.574838 -3.952549 0.000000 0.000000 0.000000 0.881931 3.448435 0.983931 1.210780 10.241467 -7.960005 -1.551967 -1.028133 -3.709929 -6.532787 4.239342 -63.970486 -179.815645 -61.959904 -177.722492 0.000000 0.000000 0.000000 1.268906 3.679812 0.575258 1.283748 8.121249 8.292719 0.146732 4.890151 2.366190 -10.460686 30.708790 47.408346 -178.399760 67.118971 177.838387 0.000000 0.000000 0.000000 
11.402075 79.699570 -5.821552 0.000000 0.000000 0.000000 9.018391 -76.255866 11.013648 -32.288667 -5.392923 21.136941 32.297960 -14.556077 10.685679 -4.799873 -11.499869 -27.386525 -2.302838 0.975390 -1.345745 0.000000 0.000000 0.000000 8.355743 -73.536631 11.444848 -10.821912 0.605966 -26.885576 36.464430 8.226677 -10.694950 -6.024731 -2.202613 27.094169 -26.063920 -0.868300 5.251855 0.000000 0.000000 0.000000 13.676372 -73.543440 14.725913 1.004914 5.121776 1.900525 -0.170748 3.587629 0.868572 0.833475 -2.629809 0.827325 0.000000 0.000000 0.000000 0.544043 3.128640 0.628709 -1.147900 6.271723 -1.589411 3.093955 35.074169 -2.924920 0.000000 0.000000 0.000000 0.637726 3.375739 0.832779 1.068040 9.070590 -6.570041 -0.466958 -0.337537 -3.902066 -5.036207 -0.285470 -61.157049 -179.859645 -61.306159 -177.959664 0.000000 0.000000 0.000000 0.949940 3.558834 0.442184 1.176773 7.539164 7.339218 -0.291455 4.889468 2.004838 -8.378182 27.417103 46.085137 -178.670276 64.519838 178.042527 0.000000 0.000000 0.000000 
11.056364 86.386055 -6.510815 0.000000 0.000000 0.000000 7.721117 -70.338101 9.578484 -30.183371 -3.066141 18.147777 23.480304 -13.983293 8.847335 2.788475 -13.698376 -25.464137 -0.707664 0.801339 -0.752262 0.000000 0.000000 0.000000 7.022401 -68.418305 10.345452 -11.085587 -1.567759 -24.723442 33.200600 7.515998 -10.585515 1.341809 -0.835554 26.996167 -28.590644 -2.147942 6.530956 0.000000 0.000000 0.000000 9.523934 -69.334022 11.073176 0.685335 4.722627 1.530446 -0.295538 3.435450 0.712954 0.332461 -2.029181 0.779009 0.000000 0.000000 0.000000 0.378405 2.971546 0.495589 -0.798905 5.862035 -1.814755 2.848223 32.390799 -1.819822 0.000000 0.000000 0.000000 0.426286 3.234145 0.691579 1.030426 7.644654 -5.677461 0.137558 0.089055 -3.769666 -3.894050 -4.886481 -57.886277 -179.699422 -60.953025 -178.109873 0.000000 0.000000 0.000000 0.765244 3.376634 0.320812 1.019608 7.149019 6.509686 -0.622574 4.641903 1.406552 -6.371309 23.727013 44.378317 -179.193223 62.928001 178.532826 0.000000 0.000000 0.000000 
10.614252 92.399773 -7.093357 0.000000 0.000000 0.000000 6.992813 -64.829492 8.780591 -27.099792 0.027801 15.417933 16.680447 -11.358185 7.626324 7.508241 -12.741528 -21.030181 0.461141 0.558811 -0.512869 0.000000 0.000000 0.000000 5.463973 -63.282795 9.119753 -12.379750 -3.227719 -22.240933 31.382769 6.011562 -10.454516 4.260077 -0.576083 24.472440 -24.473432 -2.682346 7.067728 0.000000 0.000000 0.000000 6.701439 -64.647399 8.842343 0.649320 4.171613 1.229121 -0.218468 3.185900 0.579887 0.556917 -1.307570 0.677551 0.000000 0.000000 0.000000 0.225941 2.699908 0.414163 -0.946085 5.529788 -2.172261 2.345099 29.650292 -0.763850 0.000000 0.000000 0.000000 0.348373 2.983487 0.584289 1.093196 6.129550 -5.487750 0.059391 0.176044 -3.390515 -3.266682 -8.868998 -55.082962 -179.516796 -61.318454 -178.314082 0.000000 0.000000 0.000000 0.770749 3.133368 0.237944 0.845379 6.993689 5.921266 -0.880018 4.317554 0.716412 -4.840973 20.140083 42.587141 -179.760948 62.934353 179.132393 0.000000 0.000000 0.000000 
10.216345 96.651337 -7.512001 0.000000 0.000000 0.000000 6.331230 -60.485970 8.296510 -23.553928 3.210910 13.541784 13.256372 -8.288726 7.132362 8.275023 -9.694073 -16.898884 0.137867 0.322496 -0.276412 0.000000 0.000000 0.000000 3.941067 -58.261391 7.916541 -14.903630 -3.877967 -20.166842 31.373644 3.954574 -9.951328 2.883035 -0.806916 20.098119 -14.736090 -2.228853 6.804485 0.000000 0.000000 0.000000 5.155656 -59.741575 7.794807 0.799439 3.515405 0.977839 0.110526 2.821865 0.454961 1.128478 -0.587523 0.571294 0.000000 0.000000 0.000000 0.170229 2.334031 0.390474 -1.444903 5.188060 -2.569944 1.680435 27.029482 0.076362 0.000000 0.000000 0.000000 0.444041 2.611846 0.501189 1.199366 4.673964 -5.983470 -0.698104 0.018190 -2.779811 -3.382741 -11.729136 -53.249135 -179.412308 -62.479394 -178.647450 0.000000 0.000000 0.000000 0.926327 2.827540 0.186168 0.739084 7.015698 5.690638 -0.981784 4.007947 -0.035971 -4.038486 17.033418 41.189155 179.739734 64.618459 179.742602 0.000000 0.000000 0.000000 
